<mxfile host="app.diagrams.net" agent="Mozilla/5.0 (Windows NT 10.0; Win64; x64) AppleWebKit/537.36 (KHTML, like Gecko) Chrome/131.0.0.0 Safari/537.36" version="25.0.1">
  <diagram name="Page-1" id="BCnUO_8hESMO_EkztKmL">
    <mxGraphModel dx="1647" dy="848" grid="1" gridSize="10" guides="1" tooltips="1" connect="1" arrows="1" fold="1" page="1" pageScale="1" pageWidth="850" pageHeight="1100" math="0" shadow="0">
      <root>
        <mxCell id="0" />
        <mxCell id="1" parent="0" />
        <mxCell id="qsAkrHhLrorG7CHm5gj3-1" value="Preparation" style="rounded=1;whiteSpace=wrap;html=1;" parent="1" vertex="1">
          <mxGeometry x="280" y="230" width="240" height="440" as="geometry" />
        </mxCell>
        <mxCell id="qsAkrHhLrorG7CHm5gj3-2" value="clk" style="text;html=1;align=center;verticalAlign=middle;whiteSpace=wrap;rounded=0;" parent="1" vertex="1">
          <mxGeometry x="290" y="290" width="30" height="30" as="geometry" />
        </mxCell>
        <mxCell id="qsAkrHhLrorG7CHm5gj3-4" value="data_i [7:0]" style="text;html=1;align=center;verticalAlign=middle;whiteSpace=wrap;rounded=0;" parent="1" vertex="1">
          <mxGeometry x="290" y="360" width="60" height="30" as="geometry" />
        </mxCell>
        <mxCell id="qsAkrHhLrorG7CHm5gj3-5" value="done_i" style="text;html=1;align=center;verticalAlign=middle;whiteSpace=wrap;rounded=0;" parent="1" vertex="1">
          <mxGeometry x="290" y="400" width="50" height="30" as="geometry" />
        </mxCell>
        <mxCell id="qsAkrHhLrorG7CHm5gj3-6" value="" style="endArrow=classic;html=1;rounded=0;" parent="1" edge="1">
          <mxGeometry width="50" height="50" relative="1" as="geometry">
            <mxPoint x="170" y="300" as="sourcePoint" />
            <mxPoint x="280" y="300" as="targetPoint" />
          </mxGeometry>
        </mxCell>
        <mxCell id="qsAkrHhLrorG7CHm5gj3-7" value="rst_n" style="text;html=1;align=center;verticalAlign=middle;whiteSpace=wrap;rounded=0;" parent="1" vertex="1">
          <mxGeometry x="290" y="320" width="30" height="30" as="geometry" />
        </mxCell>
        <mxCell id="qsAkrHhLrorG7CHm5gj3-8" value="" style="endArrow=classic;html=1;rounded=0;entryX=-0.012;entryY=0.164;entryDx=0;entryDy=0;entryPerimeter=0;" parent="1" edge="1">
          <mxGeometry width="50" height="50" relative="1" as="geometry">
            <mxPoint x="173" y="335.5" as="sourcePoint" />
            <mxPoint x="280" y="334.5" as="targetPoint" />
          </mxGeometry>
        </mxCell>
        <mxCell id="qsAkrHhLrorG7CHm5gj3-9" value="" style="endArrow=classic;html=1;rounded=0;entryX=-0.012;entryY=0.164;entryDx=0;entryDy=0;entryPerimeter=0;" parent="1" edge="1">
          <mxGeometry width="50" height="50" relative="1" as="geometry">
            <mxPoint x="173" y="375.5" as="sourcePoint" />
            <mxPoint x="280" y="374.5" as="targetPoint" />
          </mxGeometry>
        </mxCell>
        <mxCell id="qsAkrHhLrorG7CHm5gj3-10" value="" style="endArrow=classic;html=1;rounded=0;entryX=-0.012;entryY=0.164;entryDx=0;entryDy=0;entryPerimeter=0;" parent="1" edge="1">
          <mxGeometry width="50" height="50" relative="1" as="geometry">
            <mxPoint x="173" y="415.5" as="sourcePoint" />
            <mxPoint x="280" y="414.5" as="targetPoint" />
          </mxGeometry>
        </mxCell>
        <mxCell id="qsAkrHhLrorG7CHm5gj3-11" value="done_o" style="text;html=1;align=center;verticalAlign=middle;whiteSpace=wrap;rounded=0;" parent="1" vertex="1">
          <mxGeometry x="460" y="590" width="50" height="30" as="geometry" />
        </mxCell>
        <mxCell id="qsAkrHhLrorG7CHm5gj3-12" value="data8_o [7:0]" style="text;html=1;align=center;verticalAlign=middle;whiteSpace=wrap;rounded=0;" parent="1" vertex="1">
          <mxGeometry x="460" y="560" width="50" height="30" as="geometry" />
        </mxCell>
        <mxCell id="qsAkrHhLrorG7CHm5gj3-13" value="data7_o [7:0]" style="text;html=1;align=center;verticalAlign=middle;whiteSpace=wrap;rounded=0;" parent="1" vertex="1">
          <mxGeometry x="460" y="530" width="50" height="30" as="geometry" />
        </mxCell>
        <mxCell id="qsAkrHhLrorG7CHm5gj3-14" value="data6_o [7:0]" style="text;html=1;align=center;verticalAlign=middle;whiteSpace=wrap;rounded=0;" parent="1" vertex="1">
          <mxGeometry x="460" y="500" width="50" height="30" as="geometry" />
        </mxCell>
        <mxCell id="qsAkrHhLrorG7CHm5gj3-15" value="data5_0 [7:0]" style="text;html=1;align=center;verticalAlign=middle;whiteSpace=wrap;rounded=0;" parent="1" vertex="1">
          <mxGeometry x="460" y="470" width="50" height="30" as="geometry" />
        </mxCell>
        <mxCell id="qsAkrHhLrorG7CHm5gj3-16" value="data4_o [7:0]" style="text;html=1;align=center;verticalAlign=middle;whiteSpace=wrap;rounded=0;" parent="1" vertex="1">
          <mxGeometry x="460" y="440" width="50" height="30" as="geometry" />
        </mxCell>
        <mxCell id="qsAkrHhLrorG7CHm5gj3-17" value="data3_o [7:0]" style="text;html=1;align=center;verticalAlign=middle;whiteSpace=wrap;rounded=0;" parent="1" vertex="1">
          <mxGeometry x="460" y="410" width="50" height="30" as="geometry" />
        </mxCell>
        <mxCell id="qsAkrHhLrorG7CHm5gj3-18" value="data2_o [7:0]" style="text;html=1;align=center;verticalAlign=middle;whiteSpace=wrap;rounded=0;" parent="1" vertex="1">
          <mxGeometry x="460" y="380" width="50" height="30" as="geometry" />
        </mxCell>
        <mxCell id="qsAkrHhLrorG7CHm5gj3-19" value="data1_o [7:0]" style="text;html=1;align=center;verticalAlign=middle;whiteSpace=wrap;rounded=0;" parent="1" vertex="1">
          <mxGeometry x="460" y="350" width="50" height="30" as="geometry" />
        </mxCell>
        <mxCell id="qsAkrHhLrorG7CHm5gj3-20" value="data0_o [7:0]" style="text;html=1;align=center;verticalAlign=middle;whiteSpace=wrap;rounded=0;" parent="1" vertex="1">
          <mxGeometry x="460" y="320" width="50" height="30" as="geometry" />
        </mxCell>
        <mxCell id="qsAkrHhLrorG7CHm5gj3-21" value="" style="endArrow=classic;html=1;rounded=0;" parent="1" edge="1">
          <mxGeometry width="50" height="50" relative="1" as="geometry">
            <mxPoint x="520" y="334.83" as="sourcePoint" />
            <mxPoint x="630" y="334.83" as="targetPoint" />
          </mxGeometry>
        </mxCell>
        <mxCell id="qsAkrHhLrorG7CHm5gj3-22" value="" style="endArrow=classic;html=1;rounded=0;" parent="1" edge="1">
          <mxGeometry width="50" height="50" relative="1" as="geometry">
            <mxPoint x="520" y="360" as="sourcePoint" />
            <mxPoint x="630" y="360" as="targetPoint" />
          </mxGeometry>
        </mxCell>
        <mxCell id="qsAkrHhLrorG7CHm5gj3-23" value="" style="endArrow=classic;html=1;rounded=0;" parent="1" edge="1">
          <mxGeometry width="50" height="50" relative="1" as="geometry">
            <mxPoint x="520" y="480" as="sourcePoint" />
            <mxPoint x="630" y="480" as="targetPoint" />
          </mxGeometry>
        </mxCell>
        <mxCell id="qsAkrHhLrorG7CHm5gj3-24" value="" style="endArrow=classic;html=1;rounded=0;" parent="1" edge="1">
          <mxGeometry width="50" height="50" relative="1" as="geometry">
            <mxPoint x="520" y="390" as="sourcePoint" />
            <mxPoint x="630" y="390" as="targetPoint" />
          </mxGeometry>
        </mxCell>
        <mxCell id="qsAkrHhLrorG7CHm5gj3-25" value="" style="endArrow=classic;html=1;rounded=0;" parent="1" edge="1">
          <mxGeometry width="50" height="50" relative="1" as="geometry">
            <mxPoint x="520" y="414.83" as="sourcePoint" />
            <mxPoint x="630" y="414.83" as="targetPoint" />
          </mxGeometry>
        </mxCell>
        <mxCell id="qsAkrHhLrorG7CHm5gj3-26" value="" style="endArrow=classic;html=1;rounded=0;" parent="1" edge="1">
          <mxGeometry width="50" height="50" relative="1" as="geometry">
            <mxPoint x="520" y="449.83" as="sourcePoint" />
            <mxPoint x="630" y="449.83" as="targetPoint" />
          </mxGeometry>
        </mxCell>
        <mxCell id="qsAkrHhLrorG7CHm5gj3-27" value="" style="endArrow=classic;html=1;rounded=0;" parent="1" edge="1">
          <mxGeometry width="50" height="50" relative="1" as="geometry">
            <mxPoint x="520" y="510" as="sourcePoint" />
            <mxPoint x="630" y="510" as="targetPoint" />
          </mxGeometry>
        </mxCell>
        <mxCell id="qsAkrHhLrorG7CHm5gj3-28" value="" style="endArrow=classic;html=1;rounded=0;" parent="1" edge="1">
          <mxGeometry width="50" height="50" relative="1" as="geometry">
            <mxPoint x="520" y="540" as="sourcePoint" />
            <mxPoint x="630" y="540" as="targetPoint" />
          </mxGeometry>
        </mxCell>
        <mxCell id="qsAkrHhLrorG7CHm5gj3-29" value="" style="endArrow=classic;html=1;rounded=0;" parent="1" edge="1">
          <mxGeometry width="50" height="50" relative="1" as="geometry">
            <mxPoint x="520" y="570" as="sourcePoint" />
            <mxPoint x="630" y="570" as="targetPoint" />
          </mxGeometry>
        </mxCell>
        <mxCell id="qsAkrHhLrorG7CHm5gj3-30" value="" style="endArrow=classic;html=1;rounded=0;" parent="1" edge="1">
          <mxGeometry width="50" height="50" relative="1" as="geometry">
            <mxPoint x="520" y="604.83" as="sourcePoint" />
            <mxPoint x="630" y="604.83" as="targetPoint" />
          </mxGeometry>
        </mxCell>
      </root>
    </mxGraphModel>
  </diagram>
</mxfile>
